<svg width="40" height="40" viewBox="0 0 40 40" fill="none" xmlns="http://www.w3.org/2000/svg">
<path d="M35.2344 29.2188C33.9938 27.9688 30.9891 26.1446 29.5313 25.4094C27.6328 24.4532 27.4766 24.3751 25.9844 25.4837C24.9891 26.2235 24.3274 26.8844 23.1625 26.636C21.9977 26.3876 19.4664 24.9868 17.25 22.7774C15.0336 20.568 13.5516 17.9633 13.3024 16.8024C13.0531 15.6415 13.725 14.9876 14.4578 13.9899C15.4906 12.5837 15.4125 12.3493 14.5297 10.4508C13.8414 8.97428 11.9641 5.99772 10.7094 4.76334C9.36721 3.43756 9.36721 3.67194 8.50237 4.03131C7.79828 4.32755 7.1228 4.68765 6.4844 5.10709C5.2344 5.93756 4.54065 6.62741 4.05549 7.66413C3.57033 8.70084 3.35236 11.1313 5.85783 15.6829C8.3633 20.2344 10.1211 22.5618 13.7594 26.1899C17.3977 29.818 20.1953 31.7688 24.2852 34.0626C29.3446 36.8962 31.2852 36.3438 32.325 35.8594C33.3649 35.3751 34.0578 34.6876 34.8899 33.4376C35.3104 32.8002 35.6713 32.1255 35.968 31.4219C36.3282 30.5602 36.5625 30.5602 35.2344 29.2188Z" stroke="#009821" stroke-width="3" stroke-miterlimit="10"/>
</svg>
