<svg width="257" height="83" viewBox="0 0 257 83" fill="none" xmlns="http://www.w3.org/2000/svg">
<g clip-path="url(#clip0_5_173)">
<path d="M80.6599 4.57864C78.4128 9.03974 72.8541 21.8361 71.0801 38.7413C70.3705 44.4938 71.1983 47.8983 68.9512 49.1897L69.1878 49.8941C72.8541 48.4853 76.5205 47.4287 80.1868 46.3721L80.0686 45.5504C78.5311 45.433 78.8859 39.4457 78.8859 36.7455C78.8859 33.8106 79.2407 29.9365 84.0897 27.8233C84.9176 27.4711 85.8638 27.119 86.9282 27.0016V39.6805C86.9282 42.3806 86.6917 43.4372 85.2724 44.259L85.509 45.1982C89.1753 44.3764 92.8417 43.5546 96.6263 42.8502L96.508 41.911C94.9705 41.911 94.8523 40.3849 94.8523 38.1543C94.8523 29.3495 94.8523 20.6621 94.8523 11.8573C94.9705 6.10481 94.0244 2.46548 98.5186 1.40891V0.469727C91.659 0.469727 84.7994 0.469727 78.058 0.469727V1.40891C79.832 1.5263 81.133 2.81768 80.6599 4.57864ZM86.8099 8.80495C86.8099 12.7965 86.8099 16.5532 86.8099 20.5447C85.2724 20.7795 82.5522 21.6013 81.133 22.4231C82.434 17.8446 84.3263 12.7965 86.8099 8.80495Z" fill="#D52A20"/>
<path d="M154.105 5.63521V36.8629C154.105 38.0369 153.751 40.2675 152.45 40.6197L152.331 41.5588C160.374 42.6154 167.706 43.9068 175.039 45.9025L175.276 45.0808C175.157 43.3198 174.566 41.4414 174.211 39.5631C173.502 40.6197 170.663 40.7371 168.534 40.1501C163.449 38.7413 162.148 37.6847 161.675 35.2194C161.675 28.5277 161.675 21.2491 161.675 14.5574C163.685 13.3834 166.524 13.3834 171.255 16.0836C171.255 13.7356 171.255 11.5051 171.255 9.15714H161.675V5.63521C164.395 4.57864 168.653 4.93083 172.91 6.3396C173.502 4.57864 174.448 3.16987 175.039 1.40891V0.469727C167.115 0.469727 159.309 0.469727 151.385 0.469727V1.40891C153.632 2.23069 153.987 3.28727 154.105 5.63521Z" fill="#D52A20"/>
<path d="M129.624 5.63522V35.3368C129.624 37.4499 129.387 38.7413 128.204 39.2109V40.1501C135.655 40.1501 143.225 40.5023 150.676 41.324L150.794 40.3849L149.138 35.2194C146.536 38.1543 137.193 36.7455 137.075 32.2844C137.075 25.5928 137.075 21.1317 137.075 14.44C139.085 13.2661 141.924 13.2661 146.654 15.9662C146.654 13.6182 146.654 11.3877 146.654 9.03974H137.193V5.51782C140.859 4.34384 144.644 5.16563 148.428 6.2222C149.02 4.46124 149.966 3.05247 150.557 1.29151V0.469727C142.633 0.469727 134.709 0.469727 126.903 0.469727V1.40891C129.269 2.23069 129.505 3.28727 129.624 5.63522Z" fill="#D52A20"/>
<path d="M178.587 5.63518C178.587 17.6097 178.587 29.5843 178.587 41.5588C178.587 43.3198 178.351 45.3155 176.458 45.3155L176.104 46.1373C183.673 48.1331 191.479 50.9506 198.575 54.2377C200.704 54.9421 200.704 50.9506 200.467 49.0722C199.048 25.2406 194.672 22.8926 190.178 16.4357C197.274 9.2745 196.801 3.16983 194.672 1.17408C193.489 0.234897 191.833 0.469692 190.059 0.469692C185.21 0.469692 180.834 0.469692 175.867 0.469692V1.40887C178.469 1.99586 178.587 3.40463 178.587 5.63518ZM186.156 5.98737C186.393 3.99162 190.414 3.75682 191.124 5.98737C191.36 10.0963 189.231 13.853 186.156 16.0836C186.156 12.7964 186.156 9.3919 186.156 5.98737ZM186.156 20.0751C186.984 19.6055 187.221 19.1359 187.931 18.6663C192.898 24.8884 193.607 32.9888 193.962 40.9718C194.081 42.7328 194.672 45.6677 192.543 46.1373C190.887 46.0199 186.393 45.3155 186.156 43.672C186.156 35.8063 186.156 27.8233 186.156 20.0751Z" fill="#D52A20"/>
<path d="M202.596 5.63522V49.8941C202.596 52.829 202.123 54.4726 200.467 54.1204L200.112 54.9421C206.499 57.9945 213.477 61.7512 218.917 66.4471C222.584 68.4429 225.067 64.8035 225.067 57.8771C225.067 45.7851 221.283 36.5107 214.541 26.7668C212.176 23.3622 210.283 21.0143 210.165 19.7229C210.165 10.3311 210.165 13.2661 210.165 5.75261C210.402 3.16987 212.058 1.99589 214.541 1.40891C214.659 1.40891 214.659 1.40891 214.778 1.40891C214.778 1.05671 214.778 0.821919 214.778 0.469727C196.209 0.469727 215.014 0.469727 196.446 0.469727C196.446 1.7611 196.209 0.704521 197.747 6.3396C198.575 5.28302 201.058 4.69604 202.596 5.63522ZM210.165 25.5928C211.939 28.2929 213.359 30.9931 214.541 33.6932C219.035 44.3764 218.917 54.4726 218.917 56.7031C218.917 57.9945 218.562 58.3467 217.616 58.4641C216.197 58.4641 212.058 56.2335 210.284 53.7682C210.165 45.3156 210.165 32.8714 210.165 25.5928Z" fill="#D52A20"/>
<path d="M97.6904 41.676L97.927 42.6152C102.066 41.9108 106.206 41.3238 110.582 40.9716L110.464 40.0324C109.163 39.6802 109.517 37.5671 109.517 36.2757C109.517 28.0579 110.227 22.6576 112.474 17.2573C114.366 22.5402 115.194 27.9405 115.431 35.8061C115.431 37.0975 115.667 39.2106 114.366 39.7976V40.7368C118.269 40.3846 122.291 40.2672 126.312 40.1498V39.2106C124.774 38.9758 124.656 37.0975 124.065 35.4539C121.226 23.4794 120.635 17.6095 117.796 12.0918C122.882 5.40018 120.516 2.23044 125.72 1.40866V0.469482C122.409 0.469482 117.56 0.469482 114.248 0.469482V1.40866C114.958 1.40866 115.431 1.76085 115.549 2.93483C115.431 6.22196 114.958 7.74813 112.474 9.97868C109.99 7.74813 109.517 6.22196 109.399 2.93483C109.399 1.76085 110.109 1.64346 110.7 1.40866V0.469482C107.389 0.469482 102.539 0.469482 99.1097 0.469482V1.40866C100.884 1.76085 102.421 2.70003 103.249 5.04798C104.077 7.74812 105.496 10.0961 107.034 12.0918C104.668 17.1399 103.84 23.7142 100.292 37.4497C99.701 39.5628 99.701 40.8542 97.6904 41.676Z" fill="#D52A20"/>
<path d="M39.029 73.8431C38.7924 73.1388 38.6742 72.317 38.6742 71.6126C38.6742 66.6819 43.7598 63.2774 48.7271 63.2774C51.6838 63.2774 54.6406 64.0991 56.5329 66.4471C75.9291 55.9987 96.1532 48.9549 128.323 48.9549C150.202 48.9549 172.082 52.9464 189.35 60.9294C207.208 69.7342 219.627 81.9436 234.884 81.9436C249.549 81.9436 256.882 70.7908 256.882 59.7554C256.763 47.0765 246.947 38.2717 237.486 38.2717C233.583 38.2717 227.669 40.2675 227.669 44.0242C227.669 48.2505 234.174 53.8856 234.174 57.2901C234.174 59.0511 233.346 60.225 232.518 60.9294C231.454 61.986 229.916 63.6296 229.916 65.0383C229.916 66.0949 230.981 67.1515 232.163 67.1515C232.873 67.1515 233.819 66.7993 234.529 65.5079C236.066 63.0426 236.539 60.9294 236.539 59.1685C236.539 56.3509 235.357 54.2378 235.357 52.242C235.357 48.8375 239.141 47.5461 241.625 47.5461C248.603 47.5461 251.087 57.7597 251.087 61.0468C251.087 70.4386 242.453 77.1303 232.755 77.1303C222.229 77.1303 208.509 64.3339 189.823 56.2335C171.491 48.2505 150.321 44.4938 131.516 44.4938C106.561 44.4938 86.2186 47.7809 63.8656 57.7597C61.1454 58.8163 58.1887 59.638 55.4685 59.638C51.2108 59.638 47.6627 57.6423 46.9531 51.5376C46.9531 48.0157 46.9531 43.4372 46.9531 38.5065C46.9531 31.3453 46.9531 23.597 46.8348 18.4315C48.1358 22.8926 51.5656 34.1628 52.8665 38.7413C54.8771 31.9322 56.5329 25.1232 59.2531 18.4315V44.1416C58.8983 48.4853 57.006 52.3594 55.4685 54.9421L55.705 55.7639C59.4896 53.6508 63.8656 51.7724 68.4781 50.0115L68.2416 49.3071C67.2954 48.9549 66.7041 48.4853 66.7041 45.0808C66.7041 40.2675 66.7041 10.2137 66.7041 5.51782C66.8224 2.93507 69.1878 1.8785 72.381 1.17411V0.469727C66.8224 0.469727 62.0916 0.469727 56.4146 0.469727V1.40891C58.0704 1.8785 58.6618 2.58288 58.6618 3.40466C58.6618 3.99165 58.4252 4.81343 58.0704 5.63522C56.2964 10.5659 54.6406 15.4966 52.8665 20.4273C51.5656 15.4966 50.2646 10.6833 48.9636 5.75261C48.7271 4.81343 48.6088 4.10905 48.6088 3.52206C48.6088 2.46548 49.2002 1.99589 50.5011 1.40891V0.469727H33.352V1.40891C35.7174 1.99589 38.2011 3.16987 39.5021 4.81343C39.7386 5.16563 39.9751 5.63521 39.9751 6.1048C40.0934 7.39618 40.0934 9.03974 40.0934 10.9181C40.0934 29.9365 35.0078 77.5999 16.2029 77.5999C10.4077 77.5999 4.49425 72.5518 4.49425 65.2731C4.49425 57.5249 10.2895 52.3594 14.4289 51.5376C16.4395 51.068 18.3318 52.5942 18.3318 54.59C18.3318 57.5249 16.5578 62.1034 15.3751 67.1515C15.2568 67.6211 15.1385 68.2081 15.1385 68.795C15.1385 71.0256 16.2029 73.1388 18.2135 73.1388C19.5145 73.1388 20.4607 72.5518 20.4607 71.143C20.4607 69.969 19.751 68.5603 18.3318 67.7385C17.977 67.0341 17.8587 66.3297 17.8587 65.6253C17.8587 63.3948 19.3962 61.0468 22.4712 58.3467C26.8472 54.9422 29.0943 50.481 29.0943 47.1939C29.0943 44.6112 27.6751 42.7328 24.6001 42.7328C19.278 42.6154 0 50.481 0 66.0949C0 75.9563 7.68753 83.0001 17.2674 83.0001C25.0732 83.0001 32.9972 78.7738 39.029 73.8431Z" fill="#D52A20"/>
</g>
<defs>
<clipPath id="clip0_5_173">
<rect width="257" height="83" fill="white"/>
</clipPath>
</defs>
</svg>
